HIERARCHY
ROOT Hips
{
	OFFSET -0.001795 -0.223333 0.028219
	CHANNELS 6 Xposition Yposition Zposition Zrotation Yrotation Xrotation 
	JOINT LeftUpLeg
	{
		OFFSET 0.069520 -0.091406 -0.006815
		CHANNELS 3 Zrotation Yrotation Xrotation
		JOINT LeftLeg
		{
			OFFSET 0.034277 -0.375199 -0.004496
			CHANNELS 3 Zrotation Yrotation Xrotation
			JOINT LeftFoot
			{
				OFFSET -0.013596 -0.397961 -0.043693
				CHANNELS 3 Zrotation Yrotation Xrotation
				JOINT LeftToe
				{
					OFFSET 0.026358 -0.055791 0.119288
					CHANNELS 3 Zrotation Yrotation Xrotation
					End Site
					{
						OFFSET 0.000000 0.000000 0.000000
					}
				}
			}
		}
	}
	JOINT RightUpLeg
	{
		OFFSET -0.067670 -0.090522 -0.004320
		CHANNELS 3 Zrotation Yrotation Xrotation
		JOINT RightLeg
		{
			OFFSET -0.038290 -0.382569 -0.008850
			CHANNELS 3 Zrotation Yrotation Xrotation
			JOINT RightFoot
			{
				OFFSET 0.015774 -0.398415 -0.042312
				CHANNELS 3 Zrotation Yrotation Xrotation
				JOINT RightToe
				{
					OFFSET -0.025372 -0.048144 0.123348
					CHANNELS 3 Zrotation Yrotation Xrotation
					End Site
					{
						OFFSET 0.000000 0.000000 0.000000
					}
				}
			}
		}
	}
	JOINT Spine
	{
		OFFSET -0.002533 0.108963 -0.026696
		CHANNELS 3 Zrotation Yrotation Xrotation
		JOINT Spine1
		{
			OFFSET 0.005487 0.135180 0.001092
			CHANNELS 3 Zrotation Yrotation Xrotation
			JOINT Spine2
			{
				OFFSET 0.001457 0.052922 0.025425
				CHANNELS 3 Zrotation Yrotation Xrotation
				JOINT Neck
				{
					OFFSET -0.002778 0.213870 -0.042857
					CHANNELS 3 Zrotation Yrotation Xrotation
					JOINT Head
					{
						OFFSET 0.005152 0.064970 0.051349
						CHANNELS 3 Zrotation Yrotation Xrotation
						End Site
						{
							OFFSET 0.000000 0.000000 0.000000
						}
					}
				}
				JOINT LeftShoulder
				{
					OFFSET 0.078845 0.121749 -0.034090
					CHANNELS 3 Zrotation Yrotation Xrotation
					JOINT LeftArm
					{
						OFFSET 0.090977 0.030469 -0.008868
						CHANNELS 3 Zrotation Yrotation Xrotation
						JOINT LeftForeArm
						{
							OFFSET 0.259612 -0.012772 -0.027456
							CHANNELS 3 Zrotation Yrotation Xrotation
							JOINT LeftHand
							{
								OFFSET 0.249234 0.008986 -0.001171
								CHANNELS 3 Zrotation Yrotation Xrotation
								End Site
								{
									OFFSET 0.000000 0.000000 0.000000
								}
							}
						}
					}
				}
				JOINT RightShoulder
				{
					OFFSET -0.081759 0.118833 -0.038615
					CHANNELS 3 Zrotation Yrotation Xrotation
					JOINT RightArm
					{
						OFFSET -0.096012 0.032551 -0.009143
						CHANNELS 3 Zrotation Yrotation Xrotation
						JOINT RightForeArm
						{
							OFFSET -0.253742 -0.013329 -0.021401
							CHANNELS 3 Zrotation Yrotation Xrotation
							JOINT RightHand
							{
								OFFSET -0.255298 0.007772 -0.005559
								CHANNELS 3 Zrotation Yrotation Xrotation
								End Site
								{
									OFFSET 0.000000 0.000000 0.000000
								}
							}
						}
					}
				}
			}
		}
	}
}
MOTION
Frames: 10
Frame Time: 0.050000
0.000000 0.973104 0.000000 -0.080712 7.371674 3.818271 -0.042790 0.001648 -0.037628 -0.894659 0.178589 -3.803835 -3.306811 -0.080279 11.651264 0.000000 0.000000 0.000000 2.176222 0.125187 -1.359058 -0.712691 0.081324 -0.058100 1.816382 0.757395 8.882982 0.000000 0.000000 0.000000 -0.194798 0.021975 -0.537854 1.342581 -0.522140 -1.920982 -0.771446 -2.422472 6.794301 2.064562 0.271795 -18.650758 0.000000 0.000000 0.000000 -24.107998 -3.982630 -0.495587 -45.993899 -5.611748 -3.391907 -9.262378 -27.544294 3.254285 0.000000 0.000000 0.000000 23.585852 3.361130 0.382633 51.276710 8.652235 -1.716753 1.680018 24.673631 1.279922 0.000000 0.000000 0.000000 
0.000214 0.971649 -0.000978 0.027110 7.690841 4.233460 -0.167521 -0.030216 -0.462931 -0.963968 0.185290 -3.982765 -3.455040 -1.072368 10.114357 0.000000 0.000000 0.000000 1.295145 0.204726 -1.973592 0.440025 -0.057615 -0.125476 1.495204 0.484111 7.885119 0.000000 0.000000 0.000000 -0.415485 0.036574 -0.863815 0.922999 -0.321220 -2.056244 -0.438275 -2.701120 7.066415 1.868598 0.506237 -20.293821 0.000000 0.000000 0.000000 -23.388850 -3.750127 -0.502929 -47.330778 -4.985266 -3.774936 -8.497171 -28.727129 3.223468 0.000000 0.000000 0.000000 22.928483 2.179970 -0.338938 52.490484 8.045168 -1.987313 1.525705 26.027622 1.332187 0.000000 0.000000 0.000000 
0.000657 0.970896 -0.001627 0.147503 7.845429 4.637082 0.166830 -0.111078 -1.295383 -1.289950 0.188842 -3.247054 -4.135168 -2.125404 10.335181 0.000000 0.000000 0.000000 1.334829 0.235580 -2.251024 0.233626 -0.038314 -0.275692 1.010676 -0.237940 7.029959 0.000000 0.000000 0.000000 -0.137132 0.034714 -0.919956 0.725472 -0.164800 -3.220540 -0.905055 -3.099143 8.070114 1.680771 0.498620 -19.358307 0.000000 0.000000 0.000000 -22.125356 -3.248614 -0.586031 -48.106021 -4.685649 -4.067168 -8.965789 -27.523884 3.220362 0.000000 0.000000 0.000000 23.464929 2.610332 -0.132468 51.694262 7.338914 -2.354322 1.527141 26.184146 1.341343 0.000000 0.000000 0.000000 
0.001295 0.971345 -0.001901 -0.007403 8.417102 4.975146 -0.052284 -0.144299 -1.754952 -1.012578 0.166199 -3.083630 -4.406615 -2.703397 10.025483 0.000000 0.000000 0.000000 1.196845 0.276900 -2.603044 0.872736 -0.115404 -0.294668 1.070862 -0.122683 7.236292 0.000000 0.000000 0.000000 0.074530 0.037060 -1.077654 0.324770 -0.020819 -2.550149 -0.631662 -3.653680 7.424940 1.174566 0.788145 -19.750209 0.000000 0.000000 0.000000 -22.276478 -2.752529 -0.807131 -48.486558 -4.175582 -4.260126 -8.655037 -27.675131 3.176887 0.000000 0.000000 0.000000 23.545109 2.554478 -0.305855 51.232940 6.494737 -2.592441 2.086523 25.997960 1.418332 0.000000 0.000000 0.000000 
0.002222 0.971363 -0.001647 0.090135 8.520929 5.030530 -0.160909 -0.151863 -1.871152 -1.148922 0.172544 -2.998046 -4.312975 -2.422515 10.210184 0.000000 0.000000 0.000000 1.079774 0.261410 -2.461082 0.692655 -0.095107 -0.329219 1.066221 -0.021513 6.955233 0.000000 0.000000 0.000000 0.200511 0.024533 -0.805782 0.251815 0.023721 -2.762449 -0.908733 -3.622140 7.566769 0.974773 0.894559 -19.443278 0.000000 0.000000 0.000000 -22.247201 -2.658062 -0.899767 -48.532706 -3.501362 -4.524337 -9.247135 -26.998421 3.227969 0.000000 0.000000 0.000000 23.706495 2.445188 -0.327987 50.674302 6.182711 -2.723067 2.766290 25.559728 1.537320 0.000000 0.000000 0.000000 
0.003501 0.971084 -0.000788 0.235546 8.874468 5.195416 -0.712437 -0.136178 -1.847887 -0.572906 0.138998 -3.129529 -4.708570 -3.069926 10.207103 0.000000 0.000000 0.000000 0.741498 0.261530 -2.453334 1.004890 -0.131708 -0.276501 0.952782 -0.229107 6.930026 0.000000 0.000000 0.000000 0.200757 0.028011 -0.907221 0.179138 0.052677 -2.665216 -0.930194 -3.927736 7.665758 0.393115 1.256033 -20.099563 0.000000 0.000000 0.000000 -22.417831 -2.318320 -1.069853 -48.732420 -3.239133 -4.663634 -9.349043 -26.421135 3.188131 0.000000 0.000000 0.000000 23.444035 2.474778 -0.328526 50.870914 6.010977 -2.800801 2.972698 25.019498 1.537148 0.000000 0.000000 0.000000 
0.005069 0.970229 0.000442 0.333414 9.038645 5.204458 -0.824968 -0.131036 -1.825453 -0.475462 0.131231 -3.073683 -4.542389 -2.781997 10.163532 0.000000 0.000000 0.000000 0.825257 0.255429 -2.393215 0.674633 -0.089910 -0.203218 0.804733 -0.501708 6.822179 0.000000 0.000000 0.000000 0.234066 0.019590 -0.706147 0.237751 0.030002 -2.707048 -1.219120 -3.947789 7.689915 0.471930 1.230132 -20.146780 0.000000 0.000000 0.000000 -22.717307 -2.043585 -1.296365 -48.824774 -2.923817 -4.782611 -9.173317 -25.609368 3.038701 0.000000 0.000000 0.000000 23.164080 2.365807 -0.336303 51.004989 5.675851 -2.950078 3.099772 24.861712 1.557239 0.000000 0.000000 0.000000 
0.006869 0.969592 0.001738 0.326379 8.994113 5.208398 -1.029463 -0.119352 -1.750391 -0.195290 0.109065 -2.907681 -4.450402 -2.783890 9.881988 0.000000 0.000000 0.000000 0.723982 0.261084 -2.446408 0.783823 -0.094370 0.100844 0.685311 -0.660032 6.493819 0.000000 0.000000 0.000000 0.321487 0.014176 -0.611435 0.161714 0.057017 -2.589925 -1.243114 -3.917040 7.626689 0.560499 1.180081 -20.127611 0.000000 0.000000 0.000000 -22.992340 -2.061540 -1.317396 -48.846081 -2.588963 -4.907152 -9.268281 -25.032718 2.986582 0.000000 0.000000 0.000000 23.078256 2.254175 -0.398174 51.168195 5.385381 -3.070645 3.113504 24.648756 1.544460 0.000000 0.000000 0.000000 
0.008768 0.969169 0.003001 0.352227 8.811466 5.302752 -1.192236 -0.119326 -1.785559 -0.216859 0.108922 -2.848642 -4.312961 -2.590620 9.832941 0.000000 0.000000 0.000000 0.660881 0.281825 -2.645383 0.787571 -0.089328 0.281833 0.394473 -1.310027 6.457648 0.000000 0.000000 0.000000 0.242338 0.017688 -0.661876 0.209831 0.025623 -2.430794 -1.219000 -3.849216 7.488138 0.628304 1.138510 -20.119171 0.000000 0.000000 0.000000 -23.174087 -1.986294 -1.372754 -49.088301 -2.473273 -4.964987 -9.305589 -24.454929 2.923254 0.000000 0.000000 0.000000 22.870591 2.508706 -0.252356 51.158844 5.309419 -3.081262 3.204313 24.547330 1.550300 0.000000 0.000000 0.000000 
0.010740 0.969004 0.004177 0.443440 8.861715 5.364382 -1.308845 -0.105607 -1.677072 -0.285304 0.111915 -2.800750 -4.243251 -2.468535 9.820304 0.000000 0.000000 0.000000 0.585672 0.282474 -2.651822 0.778386 -0.080531 0.558628 0.188342 -1.701611 6.260984 0.000000 0.000000 0.000000 0.071850 0.021826 -0.686314 0.363213 -0.054699 -2.218595 -1.229040 -4.016933 7.233464 0.809683 1.024131 -20.148112 0.000000 0.000000 0.000000 -23.375398 -1.817189 -1.456231 -49.038287 -2.058600 -5.107681 -9.638755 -24.370488 2.988464 0.000000 0.000000 0.000000 22.668580 2.653150 -0.211581 51.222286 5.074427 -3.141080 3.439235 24.502040 1.582435 0.000000 0.000000 0.000000 
